<svg xmlns="http://www.w3.org/2000/svg" xmlns:xlink="http://www.w3.org/1999/xlink" width="2000" zoomAndPan="magnify" viewBox="0 0 1500 1499.999933" height="2000" preserveAspectRatio="xMidYMid meet" version="1.0"><defs><g/><clipPath id="cb0aa43c5b"><rect x="0" width="970" y="0" height="116"/></clipPath></defs><path fill="#ffffff" d="M 489.660156 647.78125 C 538.335938 643.878906 580.996094 680.089844 585.078125 728.765625 C 589.160156 777.441406 553.125 820.253906 504.480469 824.523438 C 455.578125 828.8125 412.5 792.527344 408.394531 743.589844 C 404.292969 694.65625 440.726562 651.699219 489.660156 647.78125 Z M 497.636719 801.800781 C 533.933594 801.347656 562.984375 771.53125 562.503906 735.222656 C 562.023438 698.910156 532.195312 669.875 495.898438 670.382812 C 459.636719 670.886719 430.648438 700.6875 431.128906 736.960938 C 431.605469 773.230469 461.375 802.253906 497.636719 801.800781 Z M 497.636719 801.800781 " fill-opacity="1" fill-rule="nonzero"/><path fill="#ffffff" d="M 92.589844 549.371094 L 118.8125 549.238281 C 120.15625 603.566406 118.355469 658.390625 119.160156 712.761719 C 119.5625 740.007812 119.945312 762.253906 140.550781 782.925781 C 150.359375 792.8125 162.734375 799.757812 176.277344 802.980469 C 189.652344 806.070312 219.320312 804.613281 234.691406 804.644531 L 349.453125 804.824219 C 351.375 808.363281 363.085938 828.140625 363.070312 830.226562 L 246.457031 830.144531 C 224.3125 830.203125 200.65625 830.726562 178.628906 829.777344 C 153.789062 828.710938 131.417969 815.808594 115.195312 797.101562 C 105.035156 785.214844 97.949219 771.015625 94.554688 755.746094 C 91.433594 741.148438 91.878906 723.394531 91.953125 708.433594 L 92.144531 661.699219 C 92.054688 627.03125 90.15625 583.503906 92.589844 549.371094 Z M 92.589844 549.371094 " fill-opacity="1" fill-rule="nonzero"/><path fill="#ffffff" d="M 992.671875 559.054688 C 999.59375 558.316406 1013.511719 558.804688 1020.917969 558.914062 C 1017.4375 567.984375 1012.402344 578.179688 1008.210938 587.097656 C 998.222656 608.03125 988.023438 628.859375 977.617188 649.589844 C 953.96875 697.785156 933.332031 741.648438 908.042969 789.496094 C 901.292969 773.011719 890.21875 752.914062 882.230469 736.277344 L 828.25 624.210938 C 820.019531 607.453125 803.171875 576.085938 797.691406 559.078125 C 805.265625 559.046875 813.222656 559.0625 820.761719 558.777344 C 822.808594 559.179688 824.734375 559.132812 825.738281 560.878906 C 832.347656 572.386719 838.523438 585.621094 844.238281 597.542969 L 872.957031 656.765625 C 877.410156 666.007812 882.976562 678.785156 887.664062 687.550781 C 892.074219 699.46875 902.929688 718.308594 908.527344 731.03125 L 962.539062 622.203125 C 972.214844 602.300781 982.515625 577.867188 992.671875 559.054688 Z M 992.671875 559.054688 " fill-opacity="1" fill-rule="nonzero"/><path fill="#ffffff" d="M 1132.945312 648.332031 C 1166.625 643.125 1205.113281 671.445312 1215.460938 702.625 C 1220.121094 716.667969 1220.125 726.957031 1220.058594 741.453125 C 1179.648438 742.0625 1137.894531 741.554688 1097.378906 741.527344 C 1096.921875 733.800781 1096.84375 727.457031 1097.964844 719.792969 C 1128.683594 718.246094 1164.347656 720.421875 1196.167969 719.351562 C 1193.976562 710.273438 1192.117188 703.324219 1186.546875 695.527344 C 1177.117188 682.417969 1162.871094 673.585938 1146.9375 670.984375 C 1120.582031 666.796875 1091.636719 684.035156 1081.421875 708.386719 C 1078.679688 714.9375 1077.601562 720.898438 1076.523438 727.804688 C 1076.75 746.265625 1079.710938 761.910156 1092.789062 776.3125 C 1110.121094 795.175781 1137.140625 801.65625 1161.140625 792.707031 C 1168.425781 790.027344 1174.625 784.910156 1181.996094 783.121094 C 1190.488281 781.054688 1200.804688 781.886719 1209.511719 782.332031 C 1189.949219 801.71875 1181.476562 813.445312 1151.167969 818.144531 C 1129.261719 821.539062 1104.859375 814.28125 1087.238281 800.894531 C 1069.011719 786.945312 1056.976562 766.402344 1053.722656 743.675781 C 1048.570312 705.597656 1072.171875 667.605469 1108.023438 654.082031 C 1116.691406 650.8125 1123.785156 649.574219 1132.945312 648.332031 Z M 1132.945312 648.332031 " fill-opacity="1" fill-rule="nonzero"/><path fill="#ffffff" d="M 139.519531 549.234375 L 166.667969 549.257812 C 167.460938 592.550781 166.191406 636.90625 166.75 680.308594 C 167.195312 699.546875 165.625 719.371094 167.78125 738.457031 C 168.820312 747.648438 181.40625 759.40625 190.285156 760.71875 C 205.15625 762.925781 221.550781 762.082031 236.628906 762.074219 C 266.261719 761.914062 295.894531 761.953125 325.527344 762.1875 C 327.613281 767.121094 339.460938 785.21875 339.011719 787.839844 C 322.828125 788.980469 300.445312 788.015625 283.515625 788.324219 C 254.964844 788.839844 225.726562 788.355469 197.175781 788.125 C 179.960938 787.988281 165.714844 781.96875 153.792969 769.078125 C 146.757812 761.582031 142.039062 752.210938 140.199219 742.097656 C 138.550781 733.1875 139.015625 719.953125 139.046875 710.496094 L 139.164062 668.75 C 139.230469 630.847656 138.007812 586.390625 139.519531 549.234375 Z M 139.519531 549.234375 " fill-opacity="1" fill-rule="nonzero"/><path fill="#ffffff" d="M 1330.367188 648.300781 C 1365.195312 643.492188 1405.039062 668.046875 1414.613281 702.085938 C 1420.027344 721.328125 1418.714844 745.390625 1418.695312 765.496094 L 1418.707031 818.726562 L 1395.566406 818.734375 C 1394.984375 798.472656 1394.871094 774.382812 1395.453125 754.007812 C 1396.613281 713.507812 1393.023438 678.8125 1344.300781 670.332031 C 1325.558594 669.425781 1307.445312 674.828125 1294.605469 689.144531 C 1288.515625 695.898438 1284.28125 704.117188 1282.316406 713 C 1279.933594 723.785156 1280.828125 753.152344 1280.890625 765.648438 C 1280.972656 781.976562 1280.203125 803.027344 1281.050781 819.046875 C 1273.367188 818.859375 1265.675781 818.753906 1257.988281 818.738281 C 1257.289062 801.847656 1257.808594 781.652344 1257.753906 764.582031 C 1257.703125 749.160156 1256.554688 722.578125 1259.71875 708.324219 C 1262.171875 697.625 1266.902344 687.585938 1273.589844 678.886719 C 1288.367188 659.457031 1306.960938 651.472656 1330.367188 648.300781 Z M 1330.367188 648.300781 " fill-opacity="1" fill-rule="nonzero"/><path fill="#ffffff" d="M 1041.441406 558.941406 C 1050.011719 558.699219 1059.867188 558.890625 1068.445312 558.960938 C 1056.421875 582.894531 1045.292969 607.152344 1033.757812 631.332031 C 1013.585938 673.8125 993.066406 716.125 972.203125 758.269531 L 950.015625 802.859375 C 947.746094 807.433594 938.273438 828.613281 934.421875 830.179688 C 925.523438 830.425781 916.285156 830.148438 907.363281 830.003906 C 912.566406 817.652344 921.148438 801.921875 927.328125 789.644531 L 960 723.78125 C 985.320312 672.308594 1009.113281 620.101562 1034.898438 568.867188 C 1036.453125 565.785156 1038.714844 561.003906 1041.441406 558.941406 Z M 1041.441406 558.941406 " fill-opacity="1" fill-rule="nonzero"/><path fill="#ffffff" d="M 748.796875 559.078125 C 758.066406 558.773438 767.34375 558.753906 776.609375 559.023438 C 797.328125 599.144531 816.207031 639.738281 836.164062 680.105469 C 850.175781 708.351562 864.015625 736.683594 877.683594 765.097656 C 884.085938 778.289062 891.566406 792.59375 897.480469 805.824219 C 895.015625 812.199219 892.207031 817.078125 888.898438 823.027344 C 887.457031 825.984375 886.828125 828.046875 883.882812 829.269531 C 880.855469 828.976562 878.222656 824.960938 876.984375 822.429688 C 868.703125 805.472656 860.460938 788.503906 852.117188 771.574219 L 792.777344 651.023438 L 768.648438 602.324219 C 764.386719 593.832031 750.15625 566.671875 748.796875 559.078125 Z M 748.796875 559.078125 " fill-opacity="1" fill-rule="nonzero"/><path fill="#ffffff" d="M 732.683594 644.316406 C 736.34375 644.296875 740.394531 644.46875 744.089844 644.542969 C 743.773438 652.785156 742.941406 658.445312 741.722656 666.6875 C 717.261719 666.074219 690.472656 662.9375 671.058594 680.726562 C 664.355469 686.777344 659.539062 694.640625 657.199219 703.367188 C 653.238281 718.222656 655 739.464844 654.980469 755.066406 C 654.949219 777.214844 655.429688 798.863281 654.515625 821.058594 L 644.667969 821.167969 L 630.863281 821.09375 C 629.984375 797.59375 630.941406 772.410156 630.5 748.898438 C 629.957031 719.894531 629.253906 688.023438 651.671875 666.140625 C 675.164062 643.203125 702.78125 644.378906 732.683594 644.316406 Z M 732.683594 644.316406 " fill-opacity="1" fill-rule="nonzero"/><g transform="matrix(1, 0, 0, 1, 342, 862)"><g clip-path="url(#cb0aa43c5b)"><g fill="#ffffff" fill-opacity="1"><g transform="translate(1.137711, 90.874927)"><g><path d="M 28.9375 0.75 C 24.007812 0.75 19.25 -0.015625 14.65625 -1.546875 C 10.070312 -3.078125 6.46875 -5.0625 3.84375 -7.5 L 7.3125 -14.796875 C 9.800781 -12.546875 13 -10.71875 16.90625 -9.3125 C 20.8125 -7.914062 24.820312 -7.21875 28.9375 -7.21875 C 34.375 -7.21875 38.429688 -8.132812 41.109375 -9.96875 C 43.796875 -11.8125 45.140625 -14.265625 45.140625 -17.328125 C 45.140625 -19.578125 44.40625 -21.398438 42.9375 -22.796875 C 41.46875 -24.203125 39.65625 -25.28125 37.5 -26.03125 C 35.351562 -26.78125 32.3125 -27.625 28.375 -28.5625 C 23.445312 -29.75 19.46875 -30.9375 16.4375 -32.125 C 13.40625 -33.3125 10.8125 -35.132812 8.65625 -37.59375 C 6.507812 -40.0625 5.4375 -43.390625 5.4375 -47.578125 C 5.4375 -51.078125 6.351562 -54.226562 8.1875 -57.03125 C 10.03125 -59.84375 12.828125 -62.09375 16.578125 -63.78125 C 20.328125 -65.46875 24.976562 -66.3125 30.53125 -66.3125 C 34.40625 -66.3125 38.210938 -65.8125 41.953125 -64.8125 C 45.703125 -63.8125 48.921875 -62.375 51.609375 -60.5 L 48.515625 -53.015625 C 45.765625 -54.753906 42.828125 -56.078125 39.703125 -56.984375 C 36.585938 -57.890625 33.53125 -58.34375 30.53125 -58.34375 C 25.226562 -58.34375 21.25 -57.375 18.59375 -55.4375 C 15.9375 -53.507812 14.609375 -51.015625 14.609375 -47.953125 C 14.609375 -45.703125 15.359375 -43.875 16.859375 -42.46875 C 18.359375 -41.0625 20.210938 -39.96875 22.421875 -39.1875 C 24.640625 -38.414062 27.65625 -37.59375 31.46875 -36.71875 C 36.40625 -35.53125 40.367188 -34.34375 43.359375 -33.15625 C 46.359375 -31.96875 48.9375 -30.15625 51.09375 -27.71875 C 53.25 -25.28125 54.328125 -22.003906 54.328125 -17.890625 C 54.328125 -14.453125 53.390625 -11.3125 51.515625 -8.46875 C 49.640625 -5.632812 46.796875 -3.390625 42.984375 -1.734375 C 39.179688 -0.078125 34.5 0.75 28.9375 0.75 Z M 28.9375 0.75 "/></g></g></g><g fill="#ffffff" fill-opacity="1"><g transform="translate(134.218644, 90.874927)"><g><path d="M 34.9375 -22.671875 L 34.9375 0 L 25.65625 0 L 25.65625 -22.859375 L -0.375 -65.5625 L 9.640625 -65.5625 L 30.625 -31 L 51.703125 -65.5625 L 60.96875 -65.5625 Z M 34.9375 -22.671875 "/></g></g></g><g fill="#ffffff" fill-opacity="1"><g transform="translate(269.734157, 90.874927)"><g><path d="M 28.9375 0.75 C 24.007812 0.75 19.25 -0.015625 14.65625 -1.546875 C 10.070312 -3.078125 6.46875 -5.0625 3.84375 -7.5 L 7.3125 -14.796875 C 9.800781 -12.546875 13 -10.71875 16.90625 -9.3125 C 20.8125 -7.914062 24.820312 -7.21875 28.9375 -7.21875 C 34.375 -7.21875 38.429688 -8.132812 41.109375 -9.96875 C 43.796875 -11.8125 45.140625 -14.265625 45.140625 -17.328125 C 45.140625 -19.578125 44.40625 -21.398438 42.9375 -22.796875 C 41.46875 -24.203125 39.65625 -25.28125 37.5 -26.03125 C 35.351562 -26.78125 32.3125 -27.625 28.375 -28.5625 C 23.445312 -29.75 19.46875 -30.9375 16.4375 -32.125 C 13.40625 -33.3125 10.8125 -35.132812 8.65625 -37.59375 C 6.507812 -40.0625 5.4375 -43.390625 5.4375 -47.578125 C 5.4375 -51.078125 6.351562 -54.226562 8.1875 -57.03125 C 10.03125 -59.84375 12.828125 -62.09375 16.578125 -63.78125 C 20.328125 -65.46875 24.976562 -66.3125 30.53125 -66.3125 C 34.40625 -66.3125 38.210938 -65.8125 41.953125 -64.8125 C 45.703125 -63.8125 48.921875 -62.375 51.609375 -60.5 L 48.515625 -53.015625 C 45.765625 -54.753906 42.828125 -56.078125 39.703125 -56.984375 C 36.585938 -57.890625 33.53125 -58.34375 30.53125 -58.34375 C 25.226562 -58.34375 21.25 -57.375 18.59375 -55.4375 C 15.9375 -53.507812 14.609375 -51.015625 14.609375 -47.953125 C 14.609375 -45.703125 15.359375 -43.875 16.859375 -42.46875 C 18.359375 -41.0625 20.210938 -39.96875 22.421875 -39.1875 C 24.640625 -38.414062 27.65625 -37.59375 31.46875 -36.71875 C 36.40625 -35.53125 40.367188 -34.34375 43.359375 -33.15625 C 46.359375 -31.96875 48.9375 -30.15625 51.09375 -27.71875 C 53.25 -25.28125 54.328125 -22.003906 54.328125 -17.890625 C 54.328125 -14.453125 53.390625 -11.3125 51.515625 -8.46875 C 49.640625 -5.632812 46.796875 -3.390625 42.984375 -1.734375 C 39.179688 -0.078125 34.5 0.75 28.9375 0.75 Z M 28.9375 0.75 "/></g></g></g><g fill="#ffffff" fill-opacity="1"><g transform="translate(402.81509, 90.874927)"><g><path d="M 22.859375 -57.40625 L 0.375 -57.40625 L 0.375 -65.5625 L 54.609375 -65.5625 L 54.609375 -57.40625 L 32.125 -57.40625 L 32.125 0 L 22.859375 0 Z M 22.859375 -57.40625 "/></g></g></g><g fill="#ffffff" fill-opacity="1"><g transform="translate(532.712296, 90.874927)"><g><path d="M 57.40625 -8.140625 L 57.40625 0 L 9.828125 0 L 9.828125 -65.5625 L 56.09375 -65.5625 L 56.09375 -57.40625 L 19.203125 -57.40625 L 19.203125 -37.28125 L 52.078125 -37.28125 L 52.078125 -29.3125 L 19.203125 -29.3125 L 19.203125 -8.140625 Z M 57.40625 -8.140625 "/></g></g></g><g fill="#ffffff" fill-opacity="1"><g transform="translate(670.381459, 90.874927)"><g><path d="M 70.609375 0 L 70.515625 -47.765625 L 46.828125 -7.953125 L 42.515625 -7.953125 L 18.828125 -47.484375 L 18.828125 0 L 9.828125 0 L 9.828125 -65.5625 L 17.515625 -65.5625 L 44.859375 -19.484375 L 71.828125 -65.5625 L 79.515625 -65.5625 L 79.609375 0 Z M 70.609375 0 "/></g></g></g><g fill="#ffffff" fill-opacity="1"><g transform="translate(834.737448, 90.874927)"><g><path d="M 28.9375 0.75 C 24.007812 0.75 19.25 -0.015625 14.65625 -1.546875 C 10.070312 -3.078125 6.46875 -5.0625 3.84375 -7.5 L 7.3125 -14.796875 C 9.800781 -12.546875 13 -10.71875 16.90625 -9.3125 C 20.8125 -7.914062 24.820312 -7.21875 28.9375 -7.21875 C 34.375 -7.21875 38.429688 -8.132812 41.109375 -9.96875 C 43.796875 -11.8125 45.140625 -14.265625 45.140625 -17.328125 C 45.140625 -19.578125 44.40625 -21.398438 42.9375 -22.796875 C 41.46875 -24.203125 39.65625 -25.28125 37.5 -26.03125 C 35.351562 -26.78125 32.3125 -27.625 28.375 -28.5625 C 23.445312 -29.75 19.46875 -30.9375 16.4375 -32.125 C 13.40625 -33.3125 10.8125 -35.132812 8.65625 -37.59375 C 6.507812 -40.0625 5.4375 -43.390625 5.4375 -47.578125 C 5.4375 -51.078125 6.351562 -54.226562 8.1875 -57.03125 C 10.03125 -59.84375 12.828125 -62.09375 16.578125 -63.78125 C 20.328125 -65.46875 24.976562 -66.3125 30.53125 -66.3125 C 34.40625 -66.3125 38.210938 -65.8125 41.953125 -64.8125 C 45.703125 -63.8125 48.921875 -62.375 51.609375 -60.5 L 48.515625 -53.015625 C 45.765625 -54.753906 42.828125 -56.078125 39.703125 -56.984375 C 36.585938 -57.890625 33.53125 -58.34375 30.53125 -58.34375 C 25.226562 -58.34375 21.25 -57.375 18.59375 -55.4375 C 15.9375 -53.507812 14.609375 -51.015625 14.609375 -47.953125 C 14.609375 -45.703125 15.359375 -43.875 16.859375 -42.46875 C 18.359375 -41.0625 20.210938 -39.96875 22.421875 -39.1875 C 24.640625 -38.414062 27.65625 -37.59375 31.46875 -36.71875 C 36.40625 -35.53125 40.367188 -34.34375 43.359375 -33.15625 C 46.359375 -31.96875 48.9375 -30.15625 51.09375 -27.71875 C 53.25 -25.28125 54.328125 -22.003906 54.328125 -17.890625 C 54.328125 -14.453125 53.390625 -11.3125 51.515625 -8.46875 C 49.640625 -5.632812 46.796875 -3.390625 42.984375 -1.734375 C 39.179688 -0.078125 34.5 0.75 28.9375 0.75 Z M 28.9375 0.75 "/></g></g></g></g></g></svg>